HIERARCHY
ROOT hip
{
	OFFSET 0.000000 0.000000 0.000000 
	CHANNELS 6 Xposition Yposition Zposition Xrotation Zrotation Yrotation
	JOINT abdomen
	{
		OFFSET 0.000000 3.402643 0.000000 
		CHANNELS 3 Xrotation Zrotation Yrotation
		JOINT chest
		{
			OFFSET 0.000000 8.438565 -0.680529 
			CHANNELS 3 Xrotation Zrotation Yrotation
			JOINT neck
			{
				OFFSET 0.000000 10.207942 -0.272212 
				CHANNELS 3 Xrotation Zrotation Yrotation
				JOINT head
				{
					OFFSET 0.000000 3.130431 0.000000 
					CHANNELS 3 Xrotation Zrotation Yrotation
					End Site
					{
						OFFSET 0.000000 3.130435 0.000000 
					}
				}
			}
			JOINT lCollar
			{
				OFFSET 3.470700 6.669187 -0.816635 
				CHANNELS 3 Yrotation Zrotation Xrotation
				JOINT lShldr
				{
					OFFSET 3.198488 0.000000 0.000000 
					CHANNELS 3 Zrotation Yrotation Xrotation
					JOINT lForeArm
					{
						OFFSET 10.139888 0.000000 0.000000 
						CHANNELS 3 Yrotation Zrotation Xrotation
						JOINT lHand
						{
							OFFSET 8.370511 0.000000 0.000000 
							CHANNELS 3 Zrotation Yrotation Xrotation
							End Site
							{
								OFFSET 4.083176 0.000000 0.000000 
							}
						}
					}
				}
			}
			JOINT rCollar
			{
				OFFSET -3.470700 6.669187 -0.816635 
				CHANNELS 3 Yrotation Zrotation Xrotation
				JOINT rShldr
				{
					OFFSET -3.198488 0.000000 0.000000 
					CHANNELS 3 Zrotation Yrotation Xrotation
					JOINT rForeArm
					{
						OFFSET -10.139888 0.000000 0.000000 
						CHANNELS 3 Yrotation Zrotation Xrotation
						JOINT rHand
						{
							OFFSET -8.370511 0.000000 0.000000 
							CHANNELS 3 Zrotation Yrotation Xrotation
							End Site
							{
								OFFSET -4.083176 0.000000 0.000000 
							}
						}
					}
				}
			}
		}
	}
	JOINT lThigh
	{
		OFFSET 5.308129 -1.633274 1.361059 
		CHANNELS 3 Xrotation Zrotation Yrotation
		JOINT lShin
		{
			OFFSET -2.041588 -20.007561 0.000000 
			CHANNELS 3 Xrotation Zrotation Yrotation
			JOINT lFoot
			{
				OFFSET 0.000000 -19.190928 -1.224953 
				CHANNELS 3 Xrotation Yrotation Zrotation
				End Site
				{
					OFFSET 0.000000 -2.449906 4.627600 
				}
			}
		}
	}
	JOINT rThigh
	{
		OFFSET -5.308129 -1.633274 1.361059 
		CHANNELS 3 Xrotation Zrotation Yrotation
		JOINT rShin
		{
			OFFSET 2.041588 -20.007561 0.000000 
			CHANNELS 3 Xrotation Zrotation Yrotation
			JOINT rFoot
			{
				OFFSET 0.000000 -19.190928 -1.224953 
				CHANNELS 3 Xrotation Yrotation Zrotation
				End Site
				{
					OFFSET 0.000000 -2.449906 4.627600 
				}
			}
		}
	}
}
MOTION
Frames: 13
Frame Time: 0.033333
-1.490032 49.529495 -4.058542 -0.312503 0.253902 0.272053 0.000000 0.000000 0.000000 -3.349790 -0.594685 -0.023788 6.006639 -0.155619 -1.150830 17.102421 -1.468082 -0.678515 -11.148258 -5.552787 -3.051575 -72.705795 -56.088753 51.638573 -123.260025 16.357573 40.870392 42.244339 10.637439 -0.813957 14.006714 11.926944 -3.864504 55.335262 50.446468 45.271206 121.369240 -18.264284 40.561359 -44.976936 -5.469625 -2.680660 5.143909 4.803083 5.277827 -3.025199 -3.755935 13.522944 -0.402884 -0.004768 1.347310 3.707725 -7.398242 -7.755346 0.010099 4.391260 -11.847711 -1.144271 -0.018613 1.429060 
-1.490536 49.519176 -4.058568 -0.302737 0.224606 0.223423 0.000000 0.000000 0.000000 -3.437625 -0.487403 0.097636 6.251793 -0.302585 -1.126039 16.770502 -1.527328 -0.775989 -11.412462 -6.007265 -3.189348 -71.702858 -55.804577 50.412830 -124.052452 16.499067 43.441864 39.441746 14.290596 0.282494 14.157854 11.929352 -3.947514 55.279449 50.081890 45.315071 121.471489 -18.287937 40.612186 -44.763092 -5.676820 -2.594498 5.133873 4.812429 5.279158 -3.046773 -3.728067 13.699025 -0.459779 -0.018597 1.269031 3.690475 -7.352499 -7.750551 -0.036581 4.375504 -11.929300 -1.169186 -0.016055 1.398720 
-1.496199 49.512001 -4.059236 -0.292971 0.205075 0.174733 0.000000 0.000000 0.000000 -3.408312 -0.458173 -0.011777 6.202447 -0.333620 -1.080609 16.838488 -1.420751 -0.723354 -11.246386 -6.037525 -3.156868 -71.768227 -55.880444 50.687946 -123.801552 16.501749 42.828873 40.435184 13.473183 0.079450 14.095001 11.661028 -3.912798 55.758278 50.145142 45.527233 121.311279 -18.263468 40.493248 -44.829327 -5.476640 -2.670757 5.113105 4.831732 5.272095 -3.008099 -3.707788 13.754616 -0.572424 -0.008771 1.294198 3.697230 -7.308999 -7.716884 -0.105609 4.396887 -11.925180 -1.230407 -0.012628 1.253520 
-1.500479 49.517418 -4.057134 -0.332033 0.175778 0.116169 0.000000 0.000000 0.000000 -3.349731 -0.487447 -0.039830 6.133771 -0.273542 -1.072222 16.994476 -1.333235 -0.685097 -11.123713 -5.809535 -3.067131 -72.105331 -55.914932 51.227032 -123.417587 16.454123 41.659309 41.638573 11.948368 -0.355972 14.044657 11.679462 -3.846413 55.905853 50.153343 45.653698 121.279106 -18.266708 40.544022 -45.003094 -5.393445 -2.709043 5.162838 4.851908 5.332147 -3.017325 -3.737668 13.785154 -0.544922 -0.012982 1.313390 3.689188 -7.281499 -7.694218 -0.018093 4.368624 -11.859404 -1.202453 -0.016091 1.314967 
-1.497079 49.521439 -4.048072 -0.390628 0.205073 0.066961 0.000000 0.000000 0.000000 -3.320419 -0.458214 0.026583 6.300168 -0.435454 -1.012415 16.680988 -1.024889 -0.790127 -11.287384 -6.180560 -3.082900 -71.254257 -55.800201 50.316944 -123.876640 16.513565 43.187683 39.666718 14.074438 0.227032 14.137373 11.700159 -3.825875 55.684471 49.994476 45.504398 121.304230 -18.268324 40.627003 -44.974937 -5.606675 -2.623030 5.241289 4.832009 5.337663 -3.034478 -3.745883 13.845425 -0.485171 -0.003992 1.274745 3.754663 -7.316711 -7.727458 -0.046447 4.366113 -11.822580 -1.185360 -0.023029 1.228298 
-1.501233 49.514393 -4.042448 -0.410158 0.175777 0.057335 0.000000 0.000000 0.000000 -3.271580 -0.438737 -0.062813 6.182818 -0.386790 -1.037064 16.828014 -1.208152 -0.702122 -11.117676 -6.068408 -3.014276 -71.629799 -55.844875 50.748104 -123.612671 16.477909 42.445396 40.382835 13.184446 -0.040239 14.031254 11.624653 -3.783524 55.965363 50.049278 45.739769 121.265457 -18.290667 40.721794 -44.997421 -5.687004 -2.584960 5.283054 4.872958 5.390286 -3.036426 -3.747174 13.777174 -0.570846 0.000218 1.276724 3.827874 -7.275353 -7.722480 -0.146436 4.382766 -11.849984 -1.203157 -0.011692 1.222317 
-1.504253 49.515648 -4.038282 -0.400392 0.146481 0.038039 0.000000 0.000000 0.000000 -3.183718 -0.507029 -0.206174 5.888511 -0.183127 -1.073977 17.268162 -1.380553 -0.532801 -10.726773 -5.294532 -2.847887 -73.099937 -55.859211 52.054325 -123.059639 16.357983 40.677418 42.254604 10.853962 -0.720066 13.911743 11.747798 -3.718821 55.945511 50.282333 45.636097 121.217964 -18.297321 40.714771 -45.082283 -5.498213 -2.661213 5.271188 4.910768 5.424625 -2.986841 -3.766091 13.764600 -0.628521 -0.011318 1.272520 3.785963 -7.241835 -7.680074 -0.087422 4.380989 -11.816113 -1.179135 -0.021380 1.270861 
-1.499347 49.516033 -4.031927 -0.458987 0.175776 0.008357 0.000000 0.000000 0.000000 -3.222743 -0.419258 -0.064284 6.212280 -0.459510 -1.002507 16.544638 -1.170313 -0.700513 -11.180437 -5.909247 -2.952403 -71.746414 -55.491940 50.377789 -123.739639 16.438959 43.098629 39.402920 14.287297 0.282816 13.981118 11.648680 -3.727673 55.623787 49.887798 45.014355 121.171806 -18.213009 40.570267 -44.852654 -5.547239 -2.652203 5.305816 4.878150 5.430255 -2.970390 -3.777954 13.822929 -0.613687 -0.014635 1.292114 3.843541 -7.278502 -7.742903 -0.078191 4.402030 -11.796906 -1.209197 -0.017145 1.188748 
-1.507274 49.515785 -4.032128 -0.410158 0.166011 -0.010954 0.000000 0.000000 0.000000 -3.212985 -0.438762 -0.102324 6.046081 -0.397582 -1.039625 16.554783 -1.296017 -0.669459 -11.250408 -5.955481 -2.955949 -71.517159 -55.328018 50.021885 -123.443581 16.327959 42.467228 39.762314 13.229712 -0.067215 13.902555 11.762342 -3.725988 55.608280 49.550278 44.722557 121.224548 -18.046095 40.098572 -44.305332 -5.529968 -2.661191 5.300042 4.910468 5.433742 -3.028514 -3.777516 13.846682 -0.562341 -0.005069 1.232798 3.827004 -7.245176 -7.689903 -0.165342 4.371415 -11.783001 -1.212467 -0.015383 1.157989 
-1.507148 49.514523 -4.031865 -0.371096 0.185543 -0.010967 0.000000 0.000000 0.000000 -3.125147 -0.555813 -0.164968 5.605638 -0.269404 -1.073538 16.622589 -1.102398 -0.614440 -11.066484 -5.633913 -2.839048 -71.906311 -55.070801 49.887180 -122.884613 16.042934 40.636845 40.075191 11.364421 -0.706907 13.707860 11.829248 -3.637594 55.800354 49.051105 44.055710 121.411446 -17.794428 39.597965 -43.107708 -5.555286 -2.677505 5.270291 4.871504 5.400563 -3.025461 -3.765886 13.874813 -0.604990 -0.007126 1.305436 3.746881 -7.299198 -7.715624 -0.027347 4.369429 -11.733313 -1.169598 -0.027961 1.425524 
-1.512056 49.517673 -4.031411 -0.351564 0.175778 -0.040141 0.000000 0.000000 0.000000 -3.193580 -0.672782 -0.021059 5.615524 0.017070 -1.141932 15.616523 -1.095262 -0.632934 -11.192555 -5.038894 -2.869849 -71.746910 -53.525471 47.279202 -122.562729 15.690246 41.911419 35.579956 13.208950 -0.451629 13.786951 12.138436 -3.708692 55.322105 47.031040 41.520931 121.848770 -17.090288 38.557449 -40.007778 -5.722753 -2.691661 5.233393 4.892502 5.423462 -2.997094 -3.766447 13.843437 -0.610849 -0.007413 1.284418 3.717993 -7.280721 -7.684215 -0.018500 4.379630 -11.771740 -1.170980 -0.016509 1.388067 
-1.511425 49.516785 -4.039503 -0.205079 0.166015 -0.039657 0.000000 0.000000 0.000000 -3.301143 -0.848200 -0.371005 5.413325 0.224986 -1.128702 14.551303 -0.757619 -0.303660 -11.020819 -5.252633 -2.942486 -70.778419 -51.080250 44.015644 -121.417114 14.962144 39.711662 32.019688 11.499413 -1.287097 14.339146 13.060598 -3.997285 53.658924 44.091541 38.155209 122.075806 -16.076735 35.480927 -36.302879 -6.693165 -2.466898 5.065915 4.900270 5.379488 -2.980120 -3.777956 13.921267 -0.586156 -0.011497 1.251347 3.562030 -7.271428 -7.644366 -0.037552 4.368613 -11.714534 -1.185411 -0.018245 1.293081 
-1.517594 49.514015 -4.049583 -0.039063 0.146484 -0.039162 0.000000 0.000000 0.000000 -3.740245 -0.136428 0.380012 5.886017 -1.142388 -0.867383 12.314572 -0.458022 -1.221191 -12.839264 -8.807770 -3.842314 -65.299286 -47.284218 38.337822 -120.610748 13.889853 34.166458 26.378506 12.486494 -1.476177 14.365517 11.637669 -4.211020 53.408070 39.151649 35.596443 121.839104 -14.849675 31.046581 -33.267750 -7.536228 -2.332757 4.887308 4.927013 5.387304 -2.969962 -3.787439 13.911159 -0.590247 -0.011211 1.188686 3.425126 -7.232615 -7.581907 -0.146253 4.372497 -11.879101 -1.144015 -0.015408 1.283534 
